<?xml version="1.0" encoding="utf-8"?>
<!-- Generator: Adobe Illustrator 16.0.0, SVG Export Plug-In . SVG Version: 6.00 Build 0)  -->
<!DOCTYPE svg PUBLIC "-//W3C//DTD SVG 1.1//EN" "http://www.w3.org/Graphics/SVG/1.1/DTD/svg11.dtd">
<svg version="1.1" id="Layer_1" xmlns="http://www.w3.org/2000/svg" xmlns:xlink="http://www.w3.org/1999/xlink" x="0px" y="0px"
	 width="448px" height="785px" viewBox="97 8.49 448 785" enable-background="new 97 8.49 448 785" xml:space="preserve">
<g>
	<path fill="#FFFFFF" stroke="#000000" stroke-width="2" d="M192.987,517.521c7.857-17.463,9.384-30.119,4.583-37.76
		c-5.237-6.549-8.511-10.039-9.821-10.256c0,8.947-1.31,17.676-3.709,25.971C184.695,512.283,187.532,519.703,192.987,517.521z"/>
	<path fill="none" stroke="#000000" stroke-width="2" stroke-linecap="round" stroke-linejoin="round" d="M192.987,517.521
		c-5.456,2.182-8.292-5.238-8.947-22.045c2.4-8.295,3.709-17.021,3.709-25.971c1.31,0.217,4.583,3.707,9.821,10.256
		C202.372,487.402,200.845,500.063,192.987,517.521"/>
	<g>
		<path fill="#9EA4A6" stroke="#000000" stroke-width="2" stroke-linecap="round" stroke-linejoin="round" d="M187.532,469.291
			c2.836,10.693,3.71,26.842,2.619,48.885c-2.182,29.027,6.11,46.484,24.879,52.379c12.222-44.303,16.805-69.398,13.095-75.072
			C223.105,483.037,209.575,474.308,187.532,469.291z"/>
		<path fill="none" stroke="#000000" stroke-width="2" stroke-linecap="round" stroke-linejoin="round" d="M187.532,469.291
			c22.043,5.018,35.573,13.746,40.593,26.188c3.71,5.678-0.873,30.771-13.095,75.074c-18.769-5.893-27.062-23.352-24.879-52.379
			C191.242,496.132,190.368,479.984,187.532,469.291"/>
	</g>
	<g>
		<path stroke="#000000" stroke-width="2" stroke-linecap="round" stroke-linejoin="round" d="M220.705,521.669l1.964,0.652
			c-0.656-6.109-2.619-10.477-5.674-13.314C218.74,512.72,220.05,516.865,220.705,521.669z"/>
		<path fill="none" stroke="#000000" stroke-width="2" stroke-linecap="round" stroke-linejoin="round" d="M220.705,521.669
			c-0.655-4.805-1.965-8.949-3.71-12.66c3.056,2.838,5.019,7.203,5.674,13.313L220.705,521.669"/>
	</g>
	<g>
		<path fill="#FFFFFF" stroke="#000000" stroke-width="2" stroke-linecap="round" stroke-linejoin="round" d="M388.535,742.095
			c18.33-0.875,28.807-5.236,30.988-13.096c10.692-6.766,14.186-15.496,10.478-26.189c-6.546-18.332-18.989-28.592-37.54-30.99
			c-17.021-1.742-31.206,3.057-42.992,13.971c-8.729,10.692-37.539,12.658-86.425,6.111c-10.694,1.74-11.13,7.639-1.091,17.895
			c6.984,8.945,30.99,18.988,72.236,30.555C362.998,747.332,381.113,747.986,388.535,742.095z"/>
		<path fill="none" stroke="#000000" stroke-width="2" stroke-linecap="round" stroke-linejoin="round" d="M419.523,729
			c10.692-6.766,14.186-15.496,10.478-26.189c-6.546-18.332-18.989-28.592-37.54-30.99c-17.021-1.742-31.206,3.057-42.992,13.971
			c-8.729,10.693-37.539,12.658-86.425,6.111c-10.694,1.74-11.13,7.639-1.091,17.895c6.984,8.945,30.99,18.988,72.236,30.555
			c28.809,6.982,46.924,7.641,54.346,1.746C406.865,741.22,417.342,736.857,419.523,729"/>
	</g>
	<g>
		<path fill="#9EA4A6" stroke="#000000" stroke-width="2" stroke-linecap="round" stroke-linejoin="round" d="M346.63,653.707
			c8.295-11.785,7.858-23.572-1.963-35.576c-10.041-17.459-19.642-35.793-28.372-54.994c-9.602-10.262-23.352-3.932-41.029,18.77
			c23.354,18.551,36.012,37.102,37.756,55.436c-9.603,14.188-28.808,30.115-57.834,48.449c-0.653,1.523,0.438,5.455,3.057,11.348
			c6.765,7.859,22.915,14.84,48.449,20.297c10.693,2.84,17.459,1.967,20.516-2.836c11.566-16.59,20.296-27.063,25.969-31.646
			c-13.966,2.398-24.658,2.619-32.297,0.653C329.827,674.656,338.339,664.619,346.63,653.707z"/>
		<path fill="none" stroke="#000000" stroke-width="2" stroke-linecap="round" stroke-linejoin="round" d="M344.667,618.13
			c-10.041-17.459-19.642-35.793-28.372-54.994c-9.602-10.262-23.352-3.932-41.029,18.77c23.354,18.551,36.012,37.102,37.756,55.436
			c-9.603,14.188-28.808,30.115-57.834,48.449c-0.653,1.524,0.438,5.455,3.057,11.348c6.765,7.859,22.915,14.84,48.449,20.297
			c10.693,2.839,17.459,1.967,20.516-2.836c11.566-16.59,20.296-27.063,25.969-31.646c-13.966,2.398-24.658,2.619-32.297,0.652
			c8.947-8.945,17.459-18.982,25.75-29.896C354.925,641.921,354.488,630.134,344.667,618.13"/>
	</g>
	<g>
		<path fill="#FFFFFF" stroke="#000000" stroke-width="2" stroke-linecap="round" stroke-linejoin="round" d="M268.063,715.248
			c-1.092-2.615-1.963-4.363-2.836-5.672c-49.104,3.271-78.566,1.523-88.825-5.021c-15.496-5.234-27.936-6.766-37.32-4.582
			c-17.023,2.619-28.808,13.971-35.136,33.609c-5.675,16.586-3.274,28.59,6.764,35.574c6.112,11.783,18.333,16.146,36.884,13.313
			c12.003,8.73,32.3,5.457,60.454-9.604c20.95-8.293,39.938-24.662,57.397-49.104C268.281,719.832,269.154,716.998,268.063,715.248z
			"/>
		<path fill="none" stroke="#000000" stroke-width="2" stroke-linecap="round" stroke-linejoin="round" d="M268.063,715.248
			c1.092,1.75,0.22,4.584-2.619,8.514c-17.457,24.441-36.445,40.813-57.396,49.104c-28.154,15.061-48.451,18.334-60.454,9.604
			c-18.551,2.834-30.772-1.527-36.884-13.313c-10.038-6.984-12.439-18.988-6.764-35.574c6.328-19.641,18.113-30.99,35.136-33.609
			c9.385-2.184,21.824-0.652,37.32,4.582c10.257,6.547,39.72,8.295,88.825,5.021C266.1,710.884,266.973,712.632,268.063,715.248"/>
	</g>
	<g>
		<path fill="#29833E" stroke="#000000" stroke-width="2" stroke-linecap="round" stroke-linejoin="round" d="M504.856,312.154
			c-1.095,4.801-1.312,8.512-0.438,10.913c4.364,6.764,4.581,22.697,1.091,48.013c-5.236-8.075-11.13-7.203-17.677,2.4
			c-7.639,11.567-8.513,19.206-3.274,23.134c2.618,1.964,5.678,1.092,9.604-2.401c-5.896,6.984-8.948,14.842-8.948,23.571
			c0,8.729,1.965,13.094,6.111,13.313c3.491,1.313,7.202-1.527,11.131-8.295c-2.4,9.389-3.057,18.115-1.966,25.975
			c0.657,6.98,3.713,10.691,9.169,10.91c11.13,1.525,15.058-11.566,12.221-39.501c1.965,2.833,4.364,3.929,7.201,3.273
			c5.021,0,6.11-7.637,2.837-22.699c4.803-0.436,5.456-6.109,1.966-17.023c-4.365-13.531-9.604-18.113-15.494-13.531
			C518.17,335.287,513.806,316.082,504.856,312.154z"/>
		<path fill="none" stroke="#000000" stroke-width="2" stroke-linecap="round" stroke-linejoin="round" d="M504.856,312.154
			c8.946,3.928,13.313,23.133,13.531,58.052c5.894-4.582,11.129,0,15.494,13.531c3.49,10.914,2.837,16.587-1.966,17.023
			c3.273,15.063,2.184,22.699-2.837,22.699c-2.837,0.652-5.236-0.439-7.201-3.273c2.837,27.935-1.091,41.027-12.221,39.502
			c-5.456-0.22-8.515-3.931-9.169-10.911c-1.092-7.855-0.438-16.586,1.966-25.975c-3.929,6.768-7.642,9.605-11.131,8.295
			c-4.146-0.219-6.111-4.584-6.111-13.313c0-8.729,3.056-16.587,8.948-23.571c-3.927,3.493-6.983,4.365-9.604,2.401
			c-5.235-3.929-4.361-11.566,3.274-23.134c6.547-9.603,12.438-10.475,17.677-2.4c3.49-25.316,3.273-41.249-1.091-48.013
			C503.548,320.666,503.765,316.955,504.856,312.154"/>
	</g>
	<g>
		<path fill="#FF9900" stroke="#000000" stroke-width="2" stroke-linecap="round" stroke-linejoin="round" d="M506.821,308.662
			c-0.218-9.821-4.583-15.059-13.097-15.496l-15.274-1.092l-4.801,0.655c-1.747-0.217-4.146,0.874-7.641,3.273
			c-3.271,1.965-10.041,10.476-20.081,25.316c-10.689,13.313-8.729,20.297,5.679,20.733c-0.223,8.948,8.729,7.639,26.406-3.71
			l6.767,0.217c7.639,0.219,12.438-0.872,14.401-3.49C505.076,329.831,507.695,321.101,506.821,308.662z"/>
		<path fill="none" stroke="#000000" stroke-width="2" stroke-linecap="round" stroke-linejoin="round" d="M493.728,293.167
			l-15.274-1.092l-4.801,0.655c-1.747-0.217-4.146,0.874-7.641,3.273c-3.271,1.965-10.041,10.476-20.081,25.316
			c-10.689,13.313-8.729,20.297,5.679,20.733c-0.223,8.948,8.729,7.639,26.406-3.71l6.767,0.217
			c7.639,0.219,12.438-0.872,14.401-3.49c5.896-5.239,8.515-13.969,7.641-26.408C506.604,298.841,502.238,293.603,493.728,293.167"
			/>
	</g>
	<g>
		<path fill="#9EA4A6" stroke="#000000" stroke-width="2" stroke-linecap="round" stroke-linejoin="round" d="M420.833,400.324
			c-12.004-2.401-26.842-8.948-44.958-19.424c-24.007-15.276-38.409-21.388-43.646-18.114c-2.185,6.328,12.004,27.717,42.772,64.381
			c4.585,2.4,15.935,5.238,33.828,8.512c12.224,2.617,21.39,1.746,27.063-2.182c19.86-13.75,32.737-33.83,39.067-60.235
			c0-3.056-8.513-3.929-25.316-2.838C442.656,382.209,433.055,392.249,420.833,400.324z"/>
		<path fill="none" stroke="#000000" stroke-width="2" stroke-linecap="round" stroke-linejoin="round" d="M375.875,380.9
			c-24.007-15.276-38.409-21.388-43.646-18.114c-2.185,6.328,12.004,27.717,42.772,64.381c4.585,2.4,15.935,5.238,33.828,8.512
			c12.224,2.617,21.39,1.746,27.063-2.182c19.86-13.75,32.737-33.83,39.067-60.235c0-3.056-8.513-3.929-25.316-2.838
			c-6.983,11.785-16.588,21.825-28.81,29.9C408.829,397.923,393.991,391.376,375.875,380.9"/>
	</g>
	<g>
		<path fill="#FFFFFF" stroke="#000000" stroke-width="2" stroke-linecap="round" stroke-linejoin="round" d="M151.304,588.013
			c3.273,2.836,7.419,1.529,12.657-3.271c14.623-15.061,29.245-25.1,44.303-30.115c-10.475-4.365-16.368-6.549-18.114-6.766
			c-3.057,1.092-6.766,1.523-11.13,1.963c-8.294,0.438-15.059,2.836-20.297,6.982c-5.892,4.146-9.602,8.945-10.912,14.402
			C145.848,579.503,146.939,585.177,151.304,588.013z"/>
		<path fill="none" stroke="#000000" stroke-width="2" stroke-linecap="round" stroke-linejoin="round" d="M151.304,588.013
			c-4.365-2.836-5.457-8.51-3.493-16.805c1.311-5.457,5.02-10.256,10.912-14.402c5.238-4.146,12.003-6.549,20.297-6.982
			c4.365-0.438,8.074-0.871,11.13-1.963c1.746,0.217,7.639,2.396,18.114,6.766c-15.059,5.019-29.68,15.06-44.303,30.115
			C158.723,589.542,154.577,590.849,151.304,588.013"/>
	</g>
	<g>
		<path fill="#9EA4A6" stroke="#000000" stroke-width="2" stroke-linecap="round" stroke-linejoin="round" d="M303.639,376.099
			c-8.295-4.364-18.988-1.31-31.865,8.729c-24.662,16.587-41.465,27.28-50.194,32.084c-10.04,5.457-16.149,9.82-18.115,13.095
			c-4.582,5.236-3.709,12.654,2.619,22.479c5.02,8.074,12.004,15.273,20.952,21.822c7.855,7.641,13.529,12.877,17.023,15.277
			c2.617,2.182,6.109,2.182,10.692-0.219c4.147-2.4,6.33-5.893,6.547-10.479c0.22-1.525-0.653-3.711-2.618-6.98
			c-3.055-5.457-5.674-10.912-7.856-16.369c-2.183-6.109-4.365-9.604-6.548-10.475c11.787-10.912,32.301-17.463,61.981-19.645
			c-4.583,20.732-12.876,37.104-25.098,49.324c-6.11-0.219-11.785,2.182-17.459,6.547c-24.007,36.881-39.938,61.107-48.45,72.672
			c-4.583,2.623-5.893,28.592-3.492,78.568l4.365,56.092c1.527,5.455-2.401,9.164-11.348,11.348
			c-6.767,2.184-19.424,2.838-37.321,2.184c15.06,5.895,29.683,18.551,43.868,38.191c2.4,3.932,8.293,3.932,17.677,0
			c14.84-4.801,27.28-14.4,37.538-28.373c-16.586-31.859-22.262-77.26-17.459-137.273c50.852-49.539,81.402-82.492,92.314-98.646
			c0.222-0.654,0-6.547-0.652-18.551c-0.873-14.402-2.185-28.154-4.147-41.466c-5.891-41.249-15.059-66.783-27.497-76.167
			c-20.298,2.619-29.898,7.856-29.025,15.495C290.543,359.076,298.398,366.06,303.639,376.099z"/>
		<path fill="none" stroke="#000000" stroke-width="2" stroke-linecap="round" stroke-linejoin="round" d="M303.639,376.099
			c-5.238-10.039-13.096-17.022-23.572-20.733c-0.873-7.639,8.729-12.876,29.027-15.495c12.438,9.385,21.606,34.918,27.497,76.167
			c1.966,13.313,3.274,27.063,4.147,41.465c0.652,12.004,0.874,17.896,0.652,18.551c-10.91,16.152-41.466,49.105-92.314,98.646
			c-4.801,60.016,0.874,105.412,17.459,137.273c-10.258,13.971-22.698,23.57-37.538,28.371c-9.384,3.934-15.277,3.934-17.677,0
			c-14.186-19.643-28.809-32.299-43.868-38.189c17.897,0.652,30.554,0,37.321-2.186c8.947-2.184,12.875-5.893,11.348-11.348
			l-4.365-56.09c-2.401-49.979-1.091-75.947,3.492-78.568c8.511-11.563,24.443-35.791,48.45-72.674
			c5.674-4.363,11.349-6.767,17.459-6.547c12.221-12.225,20.515-28.59,25.098-49.324c-29.681,2.184-50.194,8.729-61.981,19.645
			c2.183,0.869,4.365,4.363,6.547,10.477c2.184,5.455,4.803,10.912,7.857,16.367c1.965,3.271,2.838,5.457,2.618,6.982
			c-0.217,4.584-2.399,8.074-6.547,10.477c-4.583,2.398-8.075,2.398-10.692,0.219c-3.494-2.4-9.168-7.639-17.023-15.277
			c-8.948-6.547-15.933-13.746-20.952-21.822c-6.328-9.82-7.201-17.238-2.619-22.479c1.965-3.271,8.075-7.639,18.115-13.094
			c8.729-4.804,25.534-15.497,50.196-32.084C284.65,374.789,295.344,371.734,303.639,376.099"/>
	</g>
	<g>
		<path fill="#9EA4A6" stroke="#000000" stroke-width="2" stroke-linecap="round" stroke-linejoin="round" d="M330.044,30.62
			c-2.836-0.218-5.892,4.583-9.164,14.404l-9.821,28.59c-4.803,16.805-15.276,36.883-31.646,60.454
			c-6.767,10.475-14.187,22.26-22.043,35.574c-9.603,15.714-13.968,32.518-13.095,51.069c-0.438,11.567,6.33,13.75,19.859,7.202
			c1.311-7.202,13.096-21.824,35.139-44.085c14.84-15.713,24.44-32.736,29.025-51.505c6.984-21.169,9.82-45.613,8.512-73.766
			C336.156,38.694,333.977,29.31,330.044,30.62z"/>
		<path fill="none" stroke="#000000" stroke-width="2" stroke-linecap="round" stroke-linejoin="round" d="M320.88,45.023
			l-9.821,28.59c-4.803,16.805-15.276,36.883-31.646,60.454c-6.767,10.475-14.187,22.26-22.043,35.574
			c-9.603,15.714-13.968,32.518-13.095,51.069c-0.438,11.567,6.33,13.75,19.859,7.202c1.311-7.202,13.096-21.824,35.139-44.085
			c14.84-15.713,24.44-32.736,29.025-51.505c6.984-21.169,9.82-45.613,8.512-73.766c-0.651-19.86-2.834-29.245-6.767-27.935
			C327.208,30.402,324.152,35.203,320.88,45.023"/>
	</g>
	<g>
		<path fill="#FEE3C5" stroke="#000000" stroke-width="2" stroke-linecap="round" stroke-linejoin="round" d="M322.843,127.52
			c4.365-15.496,6.548-33.609,6.548-54.343c-3.055,10.913-9.603,23.789-18.986,38.193l-18.77,29.245
			c-7.203,10.475-14.841,23.134-22.916,37.537c-10.039,17.242-14.404,31.209-13.095,41.685l3.928-1.963
			c5.457-7.202,17.679-20.952,37.32-41.685C310.402,161.347,319.132,145.198,322.843,127.52z"/>
		<path fill="none" stroke="#000000" stroke-width="2" stroke-linecap="round" stroke-linejoin="round" d="M329.391,73.177
			c-3.055,10.913-9.603,23.789-18.986,38.193l-18.77,29.245c-7.203,10.475-14.841,23.134-22.916,37.537
			c-10.039,17.242-14.404,31.209-13.095,41.685l3.928-1.963c5.457-7.202,17.679-20.952,37.32-41.685
			c13.53-14.84,22.26-30.989,25.971-48.667C327.208,112.024,329.391,93.911,329.391,73.177"/>
	</g>
	<g>
		<path fill="#9EA4A6" stroke="#000000" stroke-width="2" stroke-linecap="round" stroke-linejoin="round" d="M228.125,17.961
			l-0.873,11.785c-1.527,18.987-3.492,35.137-6.33,48.669c-1.963,15.932-6.764,38.411-14.403,67
			c-4.148,15.932-6.331,29.899-6.548,41.685c-0.218,21.605,5.457,38.629,17.023,51.069c-4.582,7.638-5.02,17.896-1.964,30.99
			c3.274,13.532,4.801,26.844,4.801,39.503c-2.4,13.094,28.372,9.166,92.099-11.568c14.623-6.983,16.807-14.84,6.11-23.789
			c-3.272-4.583-9.603-15.495-19.423-32.736c-6.983-10.256-11.785-14.186-14.188-11.566c-1.092,0-2.183,0.436-2.837,1.527
			c-6.327-4.583-15.714-6.547-28.153-5.892c3.273-4.365,7.42-7.42,12.439-8.729c-6.766-0.655-12.658,1.091-17.678,5.456
			c3.057-7.203,8.512-12.876,16.587-17.241c-9.166,0.217-16.149,5.237-21.388,14.622c0.873-3.71,2.838-8.948,6.111-15.713
			c-4.365,4.146-8.513,8.947-12.223,15.059c0.654-6.329,3.71-16.805,8.949-31.646c3.709-9.821,6.328-18.988,8.293-27.936
			c6.328-26.189,6.984-51.504,1.744-75.948c-2.836-16.587-6.109-29.026-9.603-37.755c-6.11-21.607-11.348-31.864-15.496-30.773
			C229.216,14.252,228.125,15.56,228.125,17.961z"/>
		<path fill="none" stroke="#000000" stroke-width="2" stroke-linecap="round" stroke-linejoin="round" d="M227.252,29.746
			c-1.527,18.987-3.492,35.137-6.33,48.669c-1.963,15.932-6.764,38.411-14.403,67c-4.148,15.932-6.331,29.899-6.548,41.685
			c-0.218,21.605,5.457,38.629,17.023,51.069c-4.582,7.638-5.02,17.896-1.964,30.99c3.274,13.532,4.801,26.844,4.801,39.503
			c-2.4,13.094,28.372,9.166,92.099-11.568c14.623-6.983,16.807-14.84,6.11-23.789c-3.272-4.583-9.603-15.495-19.423-32.736
			c-6.983-10.256-11.785-14.186-14.188-11.566c-1.092,0-2.183,0.436-2.837,1.527c-6.327-4.583-15.714-6.547-28.153-5.892
			c3.273-4.365,7.42-7.42,12.439-8.729c-6.766-0.655-12.658,1.091-17.678,5.456c3.057-7.203,8.512-12.876,16.587-17.241
			c-9.166,0.217-16.149,5.237-21.388,14.622c0.873-3.71,2.838-8.948,6.111-15.713c-4.365,4.146-8.513,8.947-12.223,15.059
			c0.654-6.329,3.71-16.805,8.949-31.646c3.709-9.821,6.328-18.988,8.293-27.936c6.328-26.189,6.984-51.504,1.744-75.948
			c-2.836-16.587-6.109-29.026-9.603-37.755c-6.11-21.607-11.348-31.864-15.496-30.773c-1.964,0.219-3.055,1.527-3.055,3.928
			L227.252,29.746"/>
	</g>
	<g>
		<path stroke="#000000" stroke-width="2" stroke-linecap="round" stroke-linejoin="round" d="M285.523,230.094
			c0.218-0.219-0.438-0.437-1.965-0.873c-0.437,1.527-0.219,2.837,0.438,4.364c0.654,1.309,1.527,2.4,2.619,3.274
			C284.65,233.149,284.432,230.749,285.523,230.094z"/>
	</g>
	<g>
		<path stroke="#000000" stroke-width="2" stroke-linecap="round" stroke-linejoin="round" d="M282.686,231.404
			c0.219-0.655-0.218-0.874-1.746-0.874c-0.653,2.182,0,4.146,2.185,5.893C282.249,234.459,282.249,232.931,282.686,231.404z"/>
	</g>
	<g>
		<path stroke="#000000" stroke-width="2" stroke-linecap="round" stroke-linejoin="round" d="M328.736,73.395
			c0,0.219,0.435,0.438,1.091,0.656c1.091-3.274,1.308-6.112,0.437-8.076C330.044,68.376,329.391,70.776,328.736,73.395z"/>
	</g>
	<g>
		<path fill="#FEE3C5" stroke="#000000" stroke-width="2" stroke-linecap="round" stroke-linejoin="round" d="M251.695,118.79
			c0.871-26.626-3.057-50.414-12.002-71.584c-1.528,20.733-6.112,45.614-13.75,75.077c-4.583,20.078-7.202,37.538-7.856,52.378
			c-1.964,21.605,1.745,39.065,11.13,52.814c0-3.055,0.656-5.238,1.747-6.547c0.872-8.293,4.146-21.388,10.038-39.72
			C248.422,156.11,252.132,135.158,251.695,118.79z"/>
		<path fill="none" stroke="#000000" stroke-width="2" stroke-linecap="round" stroke-linejoin="round" d="M239.693,47.206
			c-1.528,20.733-6.112,45.614-13.75,75.077c-4.583,20.078-7.202,37.538-7.856,52.378c-1.964,21.605,1.745,39.065,11.13,52.814
			c0-3.055,0.656-5.238,1.747-6.547c0.872-8.293,4.146-21.388,10.038-39.72c7.421-25.098,11.131-46.05,10.695-62.418
			C252.566,92.164,248.641,68.376,239.693,47.206"/>
	</g>
	<g>
		<path stroke="#000000" stroke-width="2" stroke-linecap="round" stroke-linejoin="round" d="M232.055,222.019
			c-0.656-1.746-0.875-2.619-1.092-2.183c-1.528,1.31-2.402,3.711-2.838,6.984c0.655,12.222,4.146,21.824,10.693,28.808
			c-4.364-6.984-6.983-14.187-7.855-21.825C230.089,227.912,230.307,223.765,232.055,222.019z"/>
	</g>
	<g>
		<path stroke="#000000" stroke-width="2" stroke-linecap="round" stroke-linejoin="round" d="M231.399,219.4
			c-0.219,1.964-0.219,3.055,0,3.055c3.929-4.801,10.257-2.838,19.423,5.892C243.838,218.745,237.291,215.909,231.399,219.4z"/>
	</g>
	<g>
		<path stroke="#000000" stroke-width="2" stroke-linecap="round" stroke-linejoin="round" d="M239.037,47.206
			c0,0.437,0.656,0.656,1.527,0.656c0.219-3.055-0.437-5.457-1.092-7.42L239.037,47.206z"/>
	</g>
	<g>
		<path stroke="#000000" stroke-width="2" stroke-linecap="round" stroke-linejoin="round" d="M218.523,237.733
			c-0.437-0.219-1.092,0.219-1.965,1.31c1.091,0.873,2.619,1.527,4.365,1.527C220.268,239.479,219.396,238.605,218.523,237.733z"/>
	</g>
	<g>
		<path stroke="#000000" stroke-width="2" stroke-linecap="round" stroke-linejoin="round" d="M230.526,237.733
			c0-0.437-0.219-1.31-0.874-3.055c-2.618,3.709-2.182,8.511,1.528,14.622C229.216,243.189,228.998,239.26,230.526,237.733z"/>
		<path fill="none" stroke="#000000" stroke-width="2" stroke-linecap="round" stroke-linejoin="round" d="M229.652,234.678
			c-2.618,3.709-2.182,8.511,1.528,14.622c-1.964-6.11-2.183-10.04-0.654-11.566C230.526,237.296,230.307,236.423,229.652,234.678"
			/>
	</g>
	<g>
		<path stroke="#000000" stroke-width="2" stroke-linecap="round" stroke-linejoin="round" d="M314.768,275.053
			c-7.203-2.62-12.658,0.217-16.369,8.074C304.074,276.58,309.529,273.961,314.768,275.053z"/>
		<path fill="none" stroke="#000000" stroke-width="2" stroke-linecap="round" stroke-linejoin="round" d="M298.398,283.127
			c5.675-6.547,11.131-9.166,16.369-8.074C307.564,272.433,302.109,275.27,298.398,283.127"/>
	</g>
	<g>
		<path stroke="#000000" stroke-width="2" stroke-linecap="round" stroke-linejoin="round" d="M305.383,273.524
			c-4.801-0.654-7.857,1.528-9.166,6.11C298.835,276.361,301.891,274.397,305.383,273.524z"/>
		<path fill="none" stroke="#000000" stroke-width="2" stroke-linecap="round" stroke-linejoin="round" d="M296.218,279.635
			c2.618-3.274,5.673-5.237,9.166-6.11C300.583,272.871,297.525,275.053,296.218,279.635"/>
	</g>
	<g>
		<path fill="#FFFFFF" stroke="#000000" stroke-width="2" stroke-linecap="round" stroke-linejoin="round" d="M246.24,232.712
			c-3.493-0.873-5.676-0.654-6.547,1.091c-1.092,8.512,2.836,18.771,12.002,30.772c8.293,11.131,15.494,18.769,21.388,22.48
			c9.166,3.055,13.967,2.836,14.622-0.656c-1.091-10.693-6.982-22.479-17.678-35.355C261.08,240.351,253.005,234.24,246.24,232.712z
			"/>
		<path fill="none" stroke="#000000" stroke-width="2" stroke-linecap="round" stroke-linejoin="round" d="M246.24,232.712
			c6.765,1.528,14.84,7.639,23.789,18.333c10.693,12.876,16.586,24.662,17.677,35.355c-0.654,3.492-5.456,3.711-14.622,0.656
			c-5.893-3.711-13.096-11.349-21.387-22.48c-9.168-12.003-13.096-22.261-12.004-30.772
			C240.564,232.059,242.747,231.84,246.24,232.712"/>
	</g>
	<g>
		<path stroke="#000000" stroke-width="2" stroke-linecap="round" stroke-linejoin="round" d="M239.037,233.804
			c0,0.437,0.656,0,1.527-0.873c-0.219-1.31-0.437-2.182-0.873-3.273C239.037,230.749,238.818,232.059,239.037,233.804z"/>
	</g>
	<g>
		<path stroke="#000000" stroke-width="2" stroke-linecap="round" stroke-linejoin="round" d="M290.979,237.733
			c0.22,0.436,0.655,0.219,1.312-0.437c-0.437-1.31-0.873-2.182-1.312-2.401C290.543,235.986,290.762,236.86,290.979,237.733z"/>
	</g>
	<g>
		<path stroke="#000000" stroke-width="2" stroke-linecap="round" stroke-linejoin="round" d="M276.793,285.964
			c2.4-0.218,1.964-3.056-1.309-8.294c-3.492-4.8-6.547-6.547-8.949-5.237c-2.182,1.091-1.527,3.928,1.527,8.73
			C271.773,285.747,274.609,287.273,276.793,285.964z"/>
		<path fill="none" stroke="#000000" stroke-width="2" stroke-linecap="round" stroke-linejoin="round" d="M276.793,285.964
			c-2.184,1.309-5.02-0.218-8.73-4.801c-3.055-4.802-3.709-7.639-1.526-8.73c2.399-1.31,5.457,0.438,8.948,5.237
			C278.758,282.909,279.193,285.747,276.793,285.964"/>
	</g>
	<g>
		<path fill="#FFFFFF" stroke="#000000" stroke-width="2" stroke-linecap="round" stroke-linejoin="round" d="M358.633,270.25
			c1.966,0.219,3.934,0.873,5.676,2.401c-7.419-14.186-24.658-18.115-51.723-11.785c4.365,9.603,6.546,16.804,7.202,21.606
			c-1.53,3.055-3.274,4.146-5.021,3.055c-24.007-1.746-44.305-1.746-60.891,0c-30.337,1.31-46.705,17.022-48.887,47.577l6.11-6.983
			c-4.801,10.694-3.054,20.077,5.893,28.371l-1.746-13.531c3.928,12.659,11.785,18.988,23.788,19.206l-6.766-6.984
			c13.313,6.766,35.573,6.984,67,0.437c26.623,24.224,36.01,52.379,28.371,84.022c-4.146,27.719-22.262,53.473-54.779,77.037
			c-15.059,5.021-23.35,13.533-24.661,25.537c-5.456,14.838-5.456,28.152,0,39.938c12.224-1.963,22.917,0.219,32.521,6.109
			c5.236,1.746,11.784-0.438,20.077-6.33c16.806-10.691,31.209-25.098,42.995-43.432c22.696-27.932,34.699-59.578,36.229-95.588
			c-0.22-28.591-13.098-52.816-38.632-72.677c-5.894-3.709-9.385-7.857-10.476-12.439c-1.31-5.674-1.965-10.476-2.399-14.841
			c15.93-15.059,25.532-30.99,28.807-47.358l2.397,10.913c4.147-5.239,3.933-13.968-0.435-26.188l5.238,8.074
			C365.181,280.726,363.438,275.488,358.633,270.25z"/>
		<path fill="none" stroke="#000000" stroke-width="2" stroke-linecap="round" stroke-linejoin="round" d="M358.633,270.25
			c4.804,5.238,6.548,10.475,5.896,16.15l-5.238-8.074c4.364,12.221,4.582,20.951,0.435,26.189l-2.397-10.913
			c-3.273,16.369-12.877,32.3-28.807,47.358c0.436,4.365,1.09,9.167,2.399,14.841c1.091,4.583,4.582,8.73,10.479,12.439
			c25.531,19.86,38.409,44.085,38.629,72.675c-1.528,36.012-13.531,67.656-36.229,95.59c-11.786,18.334-26.189,32.736-42.995,43.43
			c-8.292,5.896-14.84,8.076-20.077,6.332c-9.604-5.895-20.295-8.072-32.521-6.111c-5.456-11.783-5.456-25.1,0-39.938
			c1.312-12.004,9.604-20.518,24.662-25.537c32.519-23.564,50.632-49.32,54.778-77.036c7.64-31.646-1.748-59.801-28.371-84.024
			c-31.428,6.547-53.688,6.329-67-0.437l6.766,6.984c-12.003-0.218-19.86-6.547-23.788-19.206l1.746,13.531
			c-8.947-8.294-10.694-17.677-5.893-28.371l-6.11,6.983c2.182-30.554,18.55-46.267,48.887-47.577
			c16.586-1.746,36.885-1.746,60.891,0c1.746,1.091,3.489,0,5.021-3.055c-0.656-4.802-2.837-12.003-7.202-21.606
			c27.063-6.33,44.304-2.4,51.723,11.785C362.563,271.124,360.599,270.469,358.633,270.25"/>
	</g>
	<g>
		<path fill="#FFFFFF" stroke="#000000" stroke-width="2" stroke-linecap="round" stroke-linejoin="round" d="M307.348,250.39
			c-5.675-8.292-10.912-12.657-15.714-12.876c0.873,5.02,4.583,12.003,11.785,20.733c4.365,6.11,7.856,10.257,10.258,12.44
			c1.746,2.618,3.056,3.274,3.927,2.618C317.823,268.287,314.549,260.648,307.348,250.39z"/>
		<path fill="none" stroke="#000000" stroke-width="2" stroke-linecap="round" stroke-linejoin="round" d="M307.348,250.39
			c7.201,10.258,10.477,17.897,10.256,22.916c-0.871,0.656-2.182,0-3.927-2.618c-2.401-2.183-5.894-6.33-10.258-12.44
			c-7.201-8.73-10.912-15.714-11.785-20.733C296.436,237.733,301.673,242.098,307.348,250.39"/>
	</g>
	<g>
		<path stroke="#000000" stroke-width="2" stroke-linecap="round" stroke-linejoin="round" d="M317.168,272.215
			c0.873-0.873,0-3.492-2.4-8.074c-1.746-3.492-3.492-4.802-5.238-4.147c-1.526,1.091-0.871,3.492,1.966,7.421
			C314.113,271.124,316.077,272.871,317.168,272.215z"/>
		<path fill="none" stroke="#000000" stroke-width="2" stroke-linecap="round" stroke-linejoin="round" d="M317.168,272.215
			c-1.091,0.656-3.055-1.091-5.674-4.801c-2.837-3.929-3.492-6.33-1.965-7.421c1.746-0.654,3.492,0.655,5.238,4.147
			C317.168,268.723,318.041,271.342,317.168,272.215"/>
	</g>
	<g>
		<path fill="#FB886F" stroke="#000000" stroke-width="2" stroke-linecap="round" stroke-linejoin="round" d="M321.751,282.473
			c0.22-1.747-0.437-2.619-1.963-2.401c-2.62,0.218-5.239,1.964-7.858,5.456c-0.436,0.873-0.436,1.31,0,1.528l7.858,1.527
			c0.435,0,0.872-0.436,1.092-1.091C321.532,286.183,321.751,284.655,321.751,282.473z"/>
		<path fill="none" stroke="#000000" stroke-width="2" stroke-linecap="round" stroke-linejoin="round" d="M321.751,282.473
			c0,2.182-0.22,3.71-0.872,5.02c-0.22,0.655-0.656,1.091-1.092,1.091l-7.857-1.527c-0.437-0.219-0.437-0.656,0-1.528
			c2.618-3.492,5.237-5.238,7.857-5.456C321.314,279.854,321.971,280.726,321.751,282.473"/>
	</g>
	<g>
		<path fill="none" stroke="#000000" stroke-width="2" stroke-linecap="round" stroke-linejoin="round" d="M304.947,293.603
			c-0.438,3.491,0.873,5.456,3.928,6.329"/>
	</g>
	<g>
		<path stroke="#000000" stroke-width="2" stroke-linecap="round" stroke-linejoin="round" d="M283.559,305.388
			c15.061-4.146,23.135-9.602,24.664-15.933c-3.494,5.674-11.787,10.695-24.882,14.841c-22.043,5.892-34.046,12.439-35.792,19.423
			C252.35,316.955,264.354,310.844,283.559,305.388z"/>
		<path fill="none" stroke="#000000" stroke-width="2" stroke-linecap="round" stroke-linejoin="round" d="M283.559,305.388
			c-19.205,5.456-31.207,11.566-36.01,18.332c1.746-6.984,13.749-13.531,35.792-19.423c13.095-4.146,21.388-9.167,24.882-14.841
			C306.693,295.786,298.618,301.242,283.559,305.388"/>
	</g>
	<g>
		<path stroke="#000000" stroke-width="2" stroke-linecap="round" stroke-linejoin="round" d="M331.135,289.674
			c-0.217,0.437,0.219,0.873,0.874,1.747c1.968-3.711,1.968-7.203,0-10.477c1.968,0,3.709-0.436,5.457-1.746
			c2.616-1.528,5.456-2.4,8.073-2.4c-3.055-0.438-5.892,0-8.291,1.528c-2.839,1.309-5.456,1.746-8.078,1.091
			C332.009,281.817,332.663,285.091,331.135,289.674z"/>
	</g>
	<g>
		<path stroke="#000000" stroke-width="2" stroke-linecap="round" stroke-linejoin="round" d="M322.188,293.82l1.311,0.219
			c0.218-1.31,0-2.401-1.091-3.055L322.188,293.82z"/>
	</g>
	<g>
		<path stroke="#000000" stroke-width="2" stroke-linecap="round" stroke-linejoin="round" d="M307.129,293.167
			c0.873,0.218,1.528,0,1.528-0.654c0-0.438-0.22-0.874-0.655-0.874c-48.014-4.801-87.952-3.491-120.252,4.148
			C234.672,289.456,274.609,288.583,307.129,293.167z"/>
		<path fill="none" stroke="#000000" stroke-width="2" stroke-linecap="round" stroke-linejoin="round" d="M308.657,292.512
			c0-0.438-0.22-0.874-0.655-0.874c-48.014-4.801-87.952-3.491-120.252,4.148c46.922-6.331,86.859-7.203,119.379-2.62
			C308.002,293.385,308.657,293.167,308.657,292.512"/>
	</g>
	<g>
		<path stroke="#000000" stroke-width="2" stroke-linecap="round" stroke-linejoin="round" d="M307.564,294.912
			c0.873,0,1.093-0.436,1.093-1.091c0-0.436-0.438-0.436-1.528-0.436c-60.234,2.401-100.393,9.821-120.906,22.043
			C219.396,302.333,259.771,295.567,307.564,294.912z"/>
		<path fill="none" stroke="#000000" stroke-width="2" stroke-linecap="round" stroke-linejoin="round" d="M308.657,293.82
			c0-0.436-0.437-0.436-1.528-0.436c-60.234,2.401-100.393,9.821-120.906,22.043c33.172-13.095,73.546-19.86,121.341-20.516
			C308.438,294.912,308.657,294.476,308.657,293.82"/>
	</g>
	<g>
		<path stroke="#000000" stroke-width="2" stroke-linecap="round" stroke-linejoin="round" d="M308.221,297.313
			c1.092,0.218,1.309-0.219,1.092-0.873c-0.219-0.218-0.654-0.437-1.527-0.437c-41.686,5.456-77.912,17.243-108.466,35.793
			C239.693,311.936,275.92,300.587,308.221,297.313z"/>
		<path fill="none" stroke="#000000" stroke-width="2" stroke-linecap="round" stroke-linejoin="round" d="M309.313,296.44
			c-0.219-0.218-0.654-0.437-1.527-0.437c-41.686,5.456-77.912,17.243-108.466,35.793c40.375-19.86,76.602-31.209,108.904-34.483
			C309.313,297.531,309.529,297.094,309.313,296.44"/>
	</g>
	<g>
		<path stroke="#000000" stroke-width="2" stroke-linecap="round" stroke-linejoin="round" d="M337.028,296.44
			c-1.528,7.639-6.984,12.658-16.368,15.059c-7.202,1.747-13.531,1.31-18.987-1.31c2.837,3.71,9.166,4.802,19.207,2.838
			C331.135,311.063,336.591,305.606,337.028,296.44z"/>
		<path fill="none" stroke="#000000" stroke-width="2" stroke-linecap="round" stroke-linejoin="round" d="M337.028,296.44
			c-0.438,9.167-5.896,14.623-16.148,16.587c-10.041,1.964-16.37,0.873-19.207-2.838c5.456,2.619,11.785,3.057,18.987,1.31
			C330.044,309.098,335.5,304.079,337.028,296.44"/>
	</g>
	<g>
		<path fill="#FFFFFF" stroke="#000000" stroke-width="2" stroke-linecap="round" stroke-linejoin="round" d="M331.57,318.264
			c0.438-0.873,0.654-2.182,0.873-3.492c1.092-10.257,0.656-18.114-1.312-24.007c-1.524,2.838-4.362,3.929-8.292,3.274
			c-0.654,3.71-3.492,5.893-8.293,6.329l-5.674-0.436c0.873,6.983,1.527,13.749,1.964,20.296c0,1.091,0.873,1.964,2.185,2.838
			c2.182,1.527,4.146,2.182,5.893,2.4c2.617,0.874,5.02,0.437,7.201-1.309C328.518,322.411,330.48,320.447,331.57,318.264z"/>
		<path fill="none" stroke="#000000" stroke-width="2" stroke-linecap="round" stroke-linejoin="round" d="M331.57,318.264
			c-1.09,2.183-3.053,4.147-5.455,5.893c-2.182,1.746-4.584,2.183-7.201,1.309c-1.747-0.218-3.71-0.873-5.893-2.4
			c-1.313-0.874-2.185-1.747-2.185-2.838c-0.437-6.547-1.091-13.313-1.964-20.296l5.674,0.436c4.801-0.436,7.641-2.619,8.293-6.329
			c3.93,0.655,6.77-0.436,8.292-3.274c1.968,5.893,2.4,13.75,1.312,24.007C332.229,316.082,332.009,317.392,331.57,318.264"/>
	</g>
	<g>
		<path stroke="#000000" stroke-width="2" stroke-linecap="round" stroke-linejoin="round" d="M323.934,294.694
			c-0.437-0.874-0.871-0.874-1.091,0.654c1.31,3.928,2.183,10.476,2.837,19.424C326.553,305.824,326.116,299.059,323.934,294.694z"
			/>
		<path fill="none" stroke="#000000" stroke-width="2" stroke-linecap="round" stroke-linejoin="round" d="M322.843,295.349
			c1.31,3.928,2.183,10.476,2.837,19.424c0.873-8.948,0.438-15.713-1.746-20.078C323.497,293.82,323.063,293.82,322.843,295.349"/>
	</g>
	<g>
		<path stroke="#000000" stroke-width="2" stroke-linecap="round" stroke-linejoin="round" d="M326.116,283.563l1.092-1.31
			c5.235-15.495,18.77-34.046,40.594-55.215c-18.551,14.403-32.735,32.954-42.122,55.434
			C325.462,283.127,325.68,283.563,326.116,283.563z"/>
		<path fill="none" stroke="#000000" stroke-width="2" stroke-linecap="round" stroke-linejoin="round" d="M326.116,283.563
			c-0.437,0-0.654-0.437-0.437-1.091c9.385-22.479,23.57-41.031,42.121-55.434c-21.824,21.169-35.355,39.72-40.594,55.215
			L326.116,283.563"/>
	</g>
	<g>
		<path stroke="#000000" stroke-width="2" stroke-linecap="round" stroke-linejoin="round" d="M326.553,284.218
			c-0.217,0.437-0.217,0.873,0,1.091c0.437,0.219,0.874,0.219,1.092-0.218c10.476-14.186,29.245-31.208,56.088-51.069
			C361.035,247.772,341.83,264.358,326.553,284.218z"/>
		<path fill="none" stroke="#000000" stroke-width="2" stroke-linecap="round" stroke-linejoin="round" d="M326.553,285.309
			c0.437,0.219,0.874,0.219,1.092-0.218c10.476-14.186,29.245-31.208,56.088-51.069c-22.696,13.75-41.901,30.336-57.18,50.196
			C326.336,284.655,326.336,285.091,326.553,285.309"/>
	</g>
	<g>
		<path stroke="#000000" stroke-width="2" stroke-linecap="round" stroke-linejoin="round" d="M328.518,285.309
			c0.219,0.438,0.652,0.219,1.526-0.654c16.15-14.404,35.137-25.971,56.743-34.7c-17.677,4.146-36.884,15.495-58.051,34.482
			C328.08,284.655,328.08,285.091,328.518,285.309z"/>
		<path fill="none" stroke="#000000" stroke-width="2" stroke-linecap="round" stroke-linejoin="round" d="M328.518,285.309
			c-0.438-0.218-0.438-0.654,0.219-0.872c21.168-18.988,40.376-30.336,58.052-34.482c-21.606,8.729-40.593,20.296-56.743,34.7
			C329.17,285.528,328.736,285.747,328.518,285.309"/>
	</g>
	<g>
		<path stroke="#000000" stroke-width="2" stroke-linecap="round" stroke-linejoin="round" d="M306.912,424.111
			c-0.874,0-1.311,0.875-1.092,2.621l10.475-1.313c-1.311-0.654-2.836-1.092-4.801-1.311L306.912,424.111L306.912,424.111z"/>
	</g>
	<g>
		<path stroke="#000000" stroke-width="2" stroke-linecap="round" stroke-linejoin="round" d="M245.148,446.156
			c-0.654-1.963-1.311-2.402-2.182-1.746c-1.092,1.092-2.183,2.396-3.494,4.365L245.148,446.156z"/>
	</g>
	<g>
		<path stroke="#000000" stroke-width="2" stroke-linecap="round" stroke-linejoin="round" d="M282.468,475.398
			c0-0.438-0.872-0.652-2.618-0.652c-0.656,1.092-0.875,1.963-1.092,3.055C280.285,477.363,281.376,476.49,282.468,475.398z"/>
	</g>
	<g>
		<path stroke="#000000" stroke-width="2" stroke-linecap="round" stroke-linejoin="round" d="M302.766,374.789
			c-2.621,0.437-3.057,1.091-1.529,1.747c2.621,1.309,5.021,2.618,6.984,4.365c1.963,1.964,4.146,4.365,6.547,7.856
			C313.021,382.209,309.094,377.627,302.766,374.789z"/>
	</g>
	<g>
		<path fill="#FFFFFF" stroke="#000000" stroke-width="2" d="M241.001,487.402l-1.528-1.525c-3.49-1.092-7.201,0-11.128,3.273
			c-3.057,2.836-5.893,3.488-8.513,2.182c-2.618-1.09-4.365-4.146-4.801-8.729c-0.872-5.021-1.964-7.855-2.838-8.947
			c-2.399-4.365-5.892-4.807-11.129-0.873c-3.928,3.49-5.675,7.854-5.239,13.527c0.22,8.076,2.402,14.188,6.767,18.553
			c3.055,3.713,7.856,4.146,13.967,1.311c5.238-2.398,8.512-2.619,10.041-1.311c1.091,0.652,1.091,1.965,0.436,3.93
			c-0.656,1.965-1.964,3.492-3.71,4.799c-5.893,1.531-10.258,3.061-13.314,4.584c-4.582,2.188-6.983,4.586-7.201,6.986
			c-0.218,1.965-0.218,4.363,0.437,7.201c-1.746-1.313-3.274-3.059-4.583-5.457c1.964-8.949,1.527-15.934-1.091-21.17
			c-5.02-10.912-12.003-15.494-20.733-13.098c-5.892,1.748-7.203,6.551-4.146,14.404c1.091,2.182,2.4,5.238,3.71,9.82
			c2.619,6.33,3.928,12.66,4.146,18.986c0.437,5.678,1.747,8.947,4.365,10.477c5.676,3.93,12.44,6.766,20.733,8.729l11.349,1.748
			c2.836,1.313,6.766,0.873,11.566-1.748c12.44-5.232,23.789-13.313,34.046-24.006c8.512-8.291,12.439-15.93,11.349-23.133
			c0-9.604-2.183-17.895-6.547-25.533c-1.528,3.057-7.203,7.199-16.587,12.438C244.275,495.478,241.001,492.857,241.001,487.402z"/>
		<path fill="#FFFFFF" stroke="#000000" stroke-width="2" d="M239.473,485.876c-3.49-1.092-7.201,0-11.128,3.273
			c-3.057,2.836-5.893,3.488-8.513,2.182c-2.618-1.09-4.365-4.146-4.801-8.729c-0.872-5.021-1.964-7.854-2.838-8.945
			c-2.399-4.365-5.892-4.807-11.129-0.873c-3.928,3.49-5.675,7.854-5.239,13.525c0.22,8.078,2.402,14.188,6.767,18.555
			c3.055,3.713,7.856,4.146,13.967,1.311c5.238-2.398,8.512-2.619,10.041-1.311c1.091,0.652,1.091,1.965,0.436,3.93
			c-0.656,1.965-1.964,3.492-3.71,4.799c-5.893,1.531-10.258,3.061-13.314,4.584c-4.582,2.188-6.983,4.586-7.201,6.986
			c-0.218,1.965-0.218,4.363,0.437,7.201c-1.746-1.313-3.274-3.059-4.583-5.457c1.964-8.949,1.527-15.934-1.091-21.17
			c-5.02-10.912-12.003-15.494-20.733-13.098c-5.892,1.748-7.203,6.551-4.146,14.404c1.091,2.182,2.4,5.238,3.71,9.82
			c2.619,6.33,3.928,12.66,4.146,18.986c0.437,5.678,1.747,8.947,4.365,10.477c5.676,3.93,12.44,6.766,20.733,8.729l11.349,1.748
			c2.836,1.313,6.766,0.873,11.566-1.748c12.44-5.232,23.789-13.313,34.046-24.006c8.512-8.291,12.439-15.93,11.349-23.133
			c0-9.604-2.183-17.895-6.547-25.533c-1.528,3.057-7.203,7.199-16.587,12.438c-6.547,0.655-9.821-1.965-9.821-7.42L239.473,485.876
			"/>
	</g>
	<g>
		<path fill="#FFFFFF" stroke="#000000" stroke-width="2" stroke-linecap="round" stroke-linejoin="round" d="M253.005,490.242
			c-3.055,1.09-5.673,1.09-7.856,0l-4.801-3.492c-1.092,8.947,1.309,13.529,7.201,13.313c6.11,0.873,11.566-1.744,16.368-7.201
			c4.147-5.02,5.457-9.82,3.274-13.746c-1.527-4.148-3.928-5.457-6.766-4.365l0.654,2.617c0.217,0.873,0.217,1.965,0,3.49
			C259.552,486.093,256.934,489.367,253.005,490.242z"/>
		<path fill="none" stroke="#000000" stroke-width="2" stroke-linecap="round" stroke-linejoin="round" d="M245.148,490.242
			l-4.801-3.492c-1.092,8.947,1.309,13.529,7.201,13.313c6.11,0.873,11.566-1.744,16.368-7.201c4.147-5.02,5.457-9.82,3.274-13.746
			c-1.527-4.148-3.928-5.457-6.766-4.365l0.654,2.617c0.217,0.873,0.217,1.965,0,3.49c-1.528,5.236-4.146,8.512-8.075,9.387
			C249.95,491.332,247.332,491.332,245.148,490.242"/>
	</g>
	<g>
		<path stroke="#000000" stroke-width="2" stroke-linecap="round" stroke-linejoin="round" d="M224.851,512.283
			c-1.746,1.748-2.618,2.619-2.4,2.619c8.948-2.186,13.968-0.654,15.494,4.584c2.402,6.549,0.22,11.563-6.546,15.059
			c-3.274,1.527-7.203,1.744-11.785,0.871c2.399,2.184,6.765,2.402,12.658,0.438c7.422-2.619,10.039-8.295,7.64-17.021
			C238.602,513.375,233.581,511.191,224.851,512.283z"/>
	</g>
	<g>
		<path stroke="#000000" stroke-width="2" stroke-linecap="round" stroke-linejoin="round" d="M248.857,500.496
			c0-0.217-0.873-0.438-2.4-0.438c-2.836,2.186-4.365,5.895-4.582,11.133c0,1.748-0.438,4.582-0.874,8.072
			c1.091-1.525,1.746-4.145,2.401-7.854C243.838,505.953,245.584,502.244,248.857,500.496z"/>
		<path fill="none" stroke="#000000" stroke-width="2" stroke-linecap="round" stroke-linejoin="round" d="M246.457,500.063
			c-2.836,2.185-4.365,5.892-4.582,11.132c0,1.748-0.438,4.582-0.874,8.072c1.091-1.525,1.746-4.146,2.401-7.855
			c0.436-5.457,2.183-9.164,5.457-10.912C248.857,500.279,247.984,500.063,246.457,500.063"/>
	</g>
	<g>
		<path fill="none" stroke="#000000" stroke-width="2" stroke-linecap="round" stroke-linejoin="round" d="M216.995,556.806
			c-7.202-4.584-11.785-12.658-13.749-24.441"/>
	</g>
	<g>
		<path stroke="#000000" stroke-width="2" stroke-linecap="round" stroke-linejoin="round" d="M199.098,527.777
			c-0.655-1.311-1.091-1.967-1.309-1.967l-0.874,3.275C197.571,529.087,198.443,528.65,199.098,527.777z"/>
	</g>
	<g>
		<path stroke="#000000" stroke-width="2" stroke-linecap="round" stroke-linejoin="round" d="M415.815,403.598
			c2.396,0,4.362-0.651,6.325-2.398c0-0.222-0.869-0.438-2.617-0.873L415.815,403.598z"/>
	</g>
	<g>
		<path stroke="#000000" stroke-width="2" stroke-linecap="round" stroke-linejoin="round" d="M363.218,436.115
			c3.054-18.986-1.312-33.828-13.313-44.084C358.416,400.76,362.78,415.382,363.218,436.115z"/>
		<path fill="none" stroke="#000000" stroke-width="2" stroke-linecap="round" stroke-linejoin="round" d="M363.218,436.115
			c-0.438-20.733-4.802-35.355-13.313-44.084C361.906,402.288,366.271,417.129,363.218,436.115"/>
	</g>
	<g>
		<path fill="#FFFFFF" stroke="#000000" stroke-width="2" stroke-linecap="round" stroke-linejoin="round" d="M479.978,363.658
			c-20.076-4.365-30.771-5.237-32.3-2.618c-2.619,7.42-1.09,12.439,4.148,15.058c6.104,3.928,12.874,4.583,20.293,1.964
			C478.667,375.662,481.289,371.08,479.978,363.658z"/>
		<path fill="none" stroke="#000000" stroke-width="2" stroke-linecap="round" stroke-linejoin="round" d="M479.978,363.658
			c1.313,7.421-1.311,12.004-7.855,14.404c-7.419,2.62-14.188,1.964-20.293-1.964c-5.238-2.619-6.771-7.638-4.148-15.058
			C449.204,358.421,459.898,359.293,479.978,363.658"/>
	</g>
	<g>
		<path fill="#FFFFFF" stroke="#000000" stroke-width="2" stroke-linecap="round" stroke-linejoin="round" d="M426.728,335.942
			c-0.219,5.237,1.526,8.948,5.021,11.785c5.455,4.365,11.786,10.912,18.989,19.424l2.835,2.401
			c1.527,1.091,4.361,1.745,8.512,1.964c6.112,0,10.695-1.092,13.532-3.055c7.855-4.583,11.563-9.603,10.912-15.059
			c0-6.329-2.619-11.568-8.293-15.059c-2.842,0-5.238-0.655-7.425-1.965c-5.453,1.747-12.22,1.31-20.296-1.527
			c0.223-0.437,1.528-1.091,3.931-1.964c10.478-4.583,14.843-11.787,13.096-22.043c-1.746-8.511-5.892-13.095-12.658-13.313
			c-4.584,0-6.981,2.401-6.981,7.42c0,3.492-0.873,6.328-2.617,8.511c-1.965,3.492-5.456,6.33-10.912,8.512
			c-4.147,1.963-6.33,4.582-6.771,8.292C427.162,332.013,426.944,333.76,426.728,335.942z"/>
		<path fill="none" stroke="#000000" stroke-width="2" stroke-linecap="round" stroke-linejoin="round" d="M431.745,347.727
			c5.455,4.365,11.786,10.912,18.989,19.424l2.835,2.401c1.527,1.091,4.361,1.745,8.512,1.964c6.112,0,10.695-1.092,13.532-3.055
			c7.855-4.583,11.563-9.603,10.912-15.059c0-6.329-2.619-11.568-8.293-15.059c-2.842,0-5.238-0.655-7.425-1.965
			c-5.456,1.747-12.22,1.31-20.296-1.527c0.223-0.437,1.528-1.091,3.931-1.964c10.478-4.583,14.843-11.787,13.096-22.043
			c-1.746-8.511-5.892-13.095-12.658-13.313c-4.584,0-6.981,2.401-6.981,7.42c0,3.492-0.873,6.328-2.617,8.511
			c-1.965,3.492-5.456,6.33-10.912,8.512c-4.147,1.963-6.33,4.582-6.771,8.292c-0.437,1.746-0.651,3.493-0.869,5.675
			C426.509,341.18,428.254,344.891,431.745,347.727"/>
	</g>
	<g>
		<path stroke="#000000" stroke-width="2" stroke-linecap="round" stroke-linejoin="round" d="M451.826,335.07
			c0-1.528-0.439-1.965-1.092-1.747c-1.095,0.438-1.968,1.091-2.402,1.964c-1.09,1.091-1.313,2.401-0.871,3.71
			C448.112,337.033,449.424,335.724,451.826,335.07z"/>
	</g>
	<g>
		<path stroke="#000000" stroke-width="2" stroke-linecap="round" stroke-linejoin="round" d="M460.336,337.033l-5.894-0.655
			c14.843,4.365,20.73,13.095,17.239,25.972C477.358,352.311,473.43,343.799,460.336,337.033z"/>
	</g>
	<g>
		<path fill="#FFFFFF" stroke="#000000" stroke-width="2" stroke-linecap="round" stroke-linejoin="round" d="M510.313,250.609
			c-4.146,0.219-8.071,2.836-12.004,7.857c-5.018,6.547-10.909,10.475-17.459,11.784c-3.271,0.437-5.456,1.746-6.548,3.493
			c-0.872,1.31-2.183,2.4-3.271,3.273c-1.744-1.528-3.491-2.183-5.457-1.964c-3.929-0.438-8.29,1.091-12.656,4.582l-1.965-5.673
			c-1.312-4.147-3.709-6.33-6.768-6.547c-3.489-0.655-6.983,0.436-10.26,3.273c-7.638,5.892-12.004,13.75-13.094,23.133
			c1.965-0.217,7.203-0.217,15.496-0.217c2.182,6.11,5.893,10.476,11.349,12.876l0.438-3.929c0.875-3.055,2.622-4.583,4.804-4.801
			c3.274-1.091,6.766,0.436,10.474,3.928c4.365,5.674,5.456,11.349,3.714,17.241c11.132,2.838,17.896-0.436,20.296-9.821
			c1.965-5.892-0.871-9.821-8.073-11.566c-2.186-0.873-3.272-2.62-3.71-4.802l9.166-0.436c1.966-4.583,6.547-7.42,13.97-7.856
			c9.819-1.964,16.147-7.857,18.55-17.897C520.134,254.537,517.733,249.299,510.313,250.609z"/>
		<path fill="none" stroke="#000000" stroke-width="2" stroke-linecap="round" stroke-linejoin="round" d="M498.309,258.466
			c-5.018,6.547-10.909,10.475-17.459,11.784c-3.271,0.437-5.456,1.746-6.548,3.493c-0.872,1.31-2.183,2.4-3.271,3.273
			c-1.744-1.528-3.491-2.183-5.457-1.964c-3.929-0.438-8.29,1.091-12.656,4.582l-1.965-5.673c-1.312-4.147-3.709-6.33-6.768-6.547
			c-3.489-0.655-6.983,0.436-10.26,3.273c-7.638,5.892-12.004,13.75-13.094,23.133c1.965-0.217,7.203-0.217,15.496-0.217
			c2.182,6.11,5.893,10.476,11.349,12.876l0.438-3.929c0.875-3.055,2.622-4.583,4.804-4.801c3.274-1.091,6.766,0.436,10.474,3.928
			c4.365,5.674,5.456,11.349,3.714,17.241c11.132,2.838,17.896-0.436,20.296-9.821c1.965-5.892-0.871-9.821-8.073-11.566
			c-2.186-0.873-3.272-2.62-3.71-4.802l9.166-0.436c1.966-4.583,6.547-7.42,13.97-7.856c9.819-1.964,16.147-7.857,18.55-17.897
			c2.835-12.003,0.438-17.241-6.984-15.931C506.167,250.828,502.238,253.445,498.309,258.466"/>
	</g>
	<g>
		<path fill="none" stroke="#000000" stroke-width="2" stroke-linecap="round" stroke-linejoin="round" d="M475.613,292.729
			c0-2.182-0.438-4.365-1.092-6.547c-0.654-4.583-1.965-7.639-3.714-9.384"/>
	</g>
	<g>
		<path fill="none" stroke="#000000" stroke-width="2" stroke-linecap="round" stroke-linejoin="round" d="M466.229,306.479
			c4.581-1.746,6.768-5.02,6.55-10.476c-0.22-5.019-3.273-7.639-8.729-7.639c-3.271,0-5.894-0.217-7.854-1.091
			c-1.748-1.964-2.842-4.801-3.492-8.293"/>
	</g>
	<g>
		<path stroke="#000000" stroke-width="2" stroke-linecap="round" stroke-linejoin="round" d="M456.625,288.583
			c0.438,0,0-0.873-1.091-2.183l-4.583-1.746C451.826,286.619,453.788,287.929,456.625,288.583z"/>
	</g>
	<g>
		<path stroke="#000000" stroke-width="2" stroke-linecap="round" stroke-linejoin="round" d="M435.238,293.385h2.183l-1.092-5.893
			C435.019,288.802,434.801,290.765,435.238,293.385z"/>
	</g>
	<g>
		<path fill="#FF9900" stroke="#000000" stroke-width="2" stroke-linecap="round" stroke-linejoin="round" d="M394.426,296.877
			c-1.091,3.928-3.708,6.329-8.073,6.983c0.871,4.365,0.438,8.511-1.745,11.785c2.616,3.056,4.146,5.674,4.803,8.293l10.475,1.31
			c7.642,1.309,12.66,1.309,15.063,0c3.489,2.4,7.854,3.491,12.877,3.274c1.309-3.274,3.489-5.238,6.547-6.547
			c5.674-2.401,9.165-5.239,10.912-8.294c1.744-1.964,2.617-4.583,2.617-7.202c-5.677-2.4-9.388-6.547-11.566-12.876H425.86
			c-6.331-0.218-10.039,0.436-11.569,1.746c-3.273-1.091-8.947-0.654-17.021,1.528H394.426z"/>
		<path fill="none" stroke="#000000" stroke-width="2" stroke-linecap="round" stroke-linejoin="round" d="M394.426,296.877h2.839
			c8.073-2.183,13.747-2.619,17.021-1.528c1.53-1.31,5.238-1.964,11.569-1.746h10.475c2.182,6.329,5.893,10.476,11.566,12.876
			c0,2.619-0.873,5.238-2.617,7.202c-1.747,3.055-5.238,5.893-10.912,8.294c-3.06,1.309-5.238,3.273-6.547,6.547
			c-5.021,0.217-9.389-0.874-12.877-3.274c-2.4,1.309-7.422,1.309-15.063,0l-10.475-1.31c-0.655-2.619-2.187-5.237-4.806-8.293
			c2.186-3.274,2.619-7.42,1.748-11.785C390.718,303.206,393.335,300.805,394.426,296.877"/>
	</g>
	<g>
		<path stroke="#000000" stroke-width="2" stroke-linecap="round" stroke-linejoin="round" d="M412.759,296.003
			c6.11,1.747,10.039,5.239,11.786,10.912c-0.22-5.673-3.271-9.602-8.729-11.785C413.633,295.349,412.542,295.786,412.759,296.003z"
			/>
	</g>
	<g>
		<path stroke="#000000" stroke-width="2" stroke-linecap="round" stroke-linejoin="round" d="M414.067,324.593
			c-0.874,0.655,0,1.091,1.965,1.091c2.618-1.964,3.929-4.365,3.709-7.201C418.434,321.319,416.467,323.502,414.067,324.593z"/>
	</g>
	<g>
		<path fill="none" stroke="#000000" stroke-width="2" stroke-linecap="round" stroke-linejoin="round" d="M389.407,323.938
			c1.745-3.492,4.801-4.583,9.602-3.273c0-4.365,1.747-7.639,5.455-10.258c-2.617-2.4-3.49-5.238-2.617-8.293
			c-3.056-0.437-5.673-2.182-7.421-5.02"/>
	</g>
	<g>
		<path stroke="#000000" stroke-width="2" stroke-linecap="round" stroke-linejoin="round" d="M470.157,335.505
			c-0.22,0.438,0.437,0.873,1.745,1.528c5.673-2.619,8.072-6.111,7.203-10.476C477.795,330.922,474.959,333.978,470.157,335.505z"/>
	</g>
	<g>
		
			<line fill="none" stroke="#000000" stroke-width="2" stroke-linecap="round" stroke-linejoin="round" x1="518.17" y1="383.301" x2="518.391" y2="369.988"/>
	</g>
	<g>
		<path stroke="#000000" stroke-width="2" stroke-linecap="round" stroke-linejoin="round" d="M522.972,385.266
			c-3.271-3.929-5.673-3.929-7.421-0.219c-0.217-6.984-2.616-10.693-7.202-10.693c-5.456-0.656-8.292,3.491-8.51,12.22
			c1.313-8.074,4.146-11.785,8.51-10.912c5.021,0.874,6.985,5.456,6.551,13.968c0.438-3.057,1.526-5.02,3.271-5.674
			C519.698,383.519,521.444,383.956,522.972,385.266z"/>
		<path fill="none" stroke="#000000" stroke-width="2" stroke-linecap="round" stroke-linejoin="round" d="M515.551,385.047
			c-0.217-6.984-2.616-10.693-7.202-10.693c-5.456-0.656-8.292,3.491-8.51,12.22c1.313-8.074,4.146-11.785,8.51-10.912
			c5.021,0.874,6.985,5.456,6.551,13.968c0.438-3.057,1.526-5.02,3.271-5.674c1.528-0.438,3.274,0,4.802,1.31
			C519.698,381.336,517.299,381.336,515.551,385.047"/>
	</g>
	<g>
		<path stroke="#000000" stroke-width="2" stroke-linecap="round" stroke-linejoin="round" d="M506.387,318.483
			c-0.22,0.654-0.22,1.31,0,1.527c5.021,3.057,7.199,17.023,6.107,41.467C515.334,338.343,513.369,323.938,506.387,318.483z"/>
		<path fill="none" stroke="#000000" stroke-width="2" stroke-linecap="round" stroke-linejoin="round" d="M506.387,318.483
			c6.982,5.456,8.947,19.86,6.107,42.994c1.092-24.443-1.09-38.41-6.107-41.467C506.167,319.792,506.167,319.137,506.387,318.483"/>
	</g>
	<g>
		<path stroke="#000000" stroke-width="2" stroke-linecap="round" stroke-linejoin="round" d="M532.576,400.324
			c-1.313-5.456-3.06-8.512-5.456-9.167c1.743,1.528,3.054,4.802,4.146,9.821C531.266,401.197,531.701,400.978,532.576,400.324z"/>
	</g>
	<g>
		<path stroke="#000000" stroke-width="2" stroke-linecap="round" stroke-linejoin="round" d="M520.79,418.22l1.746,2.4
			c-0.22-3.274-1.092-5.456-2.187-6.331L520.79,418.22z"/>
	</g>
	<g>
		<path stroke="#000000" stroke-width="2" stroke-linecap="round" stroke-linejoin="round" d="M502.675,424.111
			c1.529-2.617,1.964-4.582,1.313-6.328l-2.401,5.457C501.365,423.677,501.803,423.894,502.675,424.111z"/>
	</g>
	<g>
		<path d="M146.065,782.904c1.965-0.217,3.056-0.654,2.837-1.092c-5.456-3.271-7.639-9.82-6.765-19.857
			c1.746-15.063,9.821-25.756,24.225-32.303c-14.622,3.93-23.57,14.402-26.625,31.861
			C138.427,771.775,140.609,778.976,146.065,782.904z"/>
	</g>
	<g>
		<path d="M134.716,713.724c-13.749,5.893-22.479,15.711-26.407,29.461c-2.401,8.514-2.182,16.807,0.654,25.102
			c1.091,1.744,2.183,2.182,3.492,1.309c-3.929-6.98-4.583-15.713-1.747-25.754C112.892,732.273,120.967,722.234,134.716,713.724z"
			/>
	</g>
	<g>
		<path stroke="#000000" stroke-width="2" stroke-linecap="round" stroke-linejoin="round" d="M314.113,635.373
			c-0.219-0.438-0.654,0.654-1.746,3.273c0.436,1.523,1.091,2.838,1.964,3.709C314.549,640.392,314.549,637.99,314.113,635.373z"/>
	</g>
	<g>
		<path stroke="#000000" stroke-width="2" stroke-linecap="round" stroke-linejoin="round" d="M390.278,741.875
			c2.839-2.402,4.585-5.676,5.456-10.039c0.438-2.184,0.653-4.146,0.438-6.109c-1.748-13.75-11.352-23.135-28.812-27.5
			c16.808,6.984,25.538,16.148,26.188,27.721c0.439,7.639-2.182,12.877-7.199,15.711L390.278,741.875z"/>
	</g>
	<g>
		<path stroke="#000000" stroke-width="2" stroke-linecap="round" stroke-linejoin="round" d="M421.706,710.667
			c-3.709-16.588-13.969-25.973-30.554-28.154c16.365,5.238,25.972,14.623,28.371,28.371c1.092,7.855,0.654,14.188-1.968,18.986
			c-0.217,0.438,1.095-0.219,3.714-1.527C423.015,722.453,423.234,716.558,421.706,710.667z"/>
	</g>
	<g>
		<path stroke="#000000" stroke-width="2" stroke-linecap="round" stroke-linejoin="round" d="M215.03,336.161
			c-0.872,1.527-1.091,3.491-0.436,6.111h2.4L215.03,336.161z"/>
	</g>
	<g>
		<path stroke="#000000" stroke-width="2" stroke-linecap="round" stroke-linejoin="round" d="M209.575,326.775
			c1.091,1.528,1.746,1.964,1.963,1.31l2.62-5.893C212.413,322.848,210.666,324.375,209.575,326.775z"/>
	</g>
	<g>
		<path stroke="#000000" stroke-width="2" stroke-linecap="round" stroke-linejoin="round" d="M233.581,355.147
			c0.873-1.091,1.091-1.964,0.437-2.401c-1.963-0.873-4.146-1.746-6.11-3.055C228.78,352.092,230.743,353.837,233.581,355.147z"/>
	</g>
	<g>
		<path stroke="#000000" stroke-width="2" stroke-linecap="round" stroke-linejoin="round" d="M355.799,294.694
			c0.217,1.092,1.091,1.309,2.617,0.873c0.438-2.838-0.218-5.237-1.526-7.203L355.799,294.694z"/>
	</g>
	<g>
		<path stroke="#000000" stroke-width="2" stroke-linecap="round" stroke-linejoin="round" d="M271.993,203.468l-10.259-0.218
			c-1.746,0.218-1.308,1.527,1.529,3.492C266.1,204.996,268.938,203.905,271.993,203.468z"/>
	</g>
	<g>
		<path stroke="#000000" stroke-width="2" stroke-linecap="round" stroke-linejoin="round" d="M262.826,214.38
			c-1.965,0-1.746,1.528,0.654,3.929c3.273-1.31,6.11-1.965,8.513-1.965C270.027,214.817,266.973,214.162,262.826,214.38z"/>
	</g>
	<g>
		<path stroke="#000000" stroke-width="2" stroke-linecap="round" stroke-linejoin="round" d="M245.584,205.432
			c-1.091,1.747,0,1.966,3.71,1.31c1.31-2.837,2.837-5.892,4.802-8.948l-4.582,3.273
			C247.768,202.814,246.457,204.124,245.584,205.432z"/>
	</g>
	<g>
		<path stroke="#000000" stroke-width="2" stroke-linecap="round" stroke-linejoin="round" d="M246.24,217
			c-1.746-2.182-3.057-2.182-3.711-0.655c-0.653,2.182-0.653,4.148,0.656,5.896L246.24,217z"/>
	</g>
	<g>
		<path stroke="#000000" stroke-width="2" stroke-linecap="round" stroke-linejoin="round" d="M251.477,220.709
			c0.655-0.436,0.438-1.309-0.654-2.183c-1.092-1.091-1.963-1.308-2.619-0.217c-1.092,1.746-1.746,3.71-1.527,6.111L251.477,220.709
			z"/>
	</g>
	<g>
		<path stroke="#000000" stroke-width="2" stroke-linecap="round" stroke-linejoin="round" d="M239.473,216.344
			c-1.091-3.709-1.963-4.801-2.617-2.837l-1.092,5.457l2.182,0.218L239.473,216.344z"/>
	</g>
	<g>
		<path stroke="#000000" stroke-width="2" stroke-linecap="round" stroke-linejoin="round" d="M359.072,280.726l1.743-1.963
			c-1.094-2.183-2.617-3.492-4.364-4.583L359.072,280.726z"/>
	</g>
	<g>
		<path stroke="#000000" stroke-width="2" stroke-linecap="round" stroke-linejoin="round" d="M364.09,270.469l-2.397,1.746
			c1.965,1.091,3.488,2.619,4.802,4.365c0-1.091-0.22-2.401-0.872-3.709L364.09,270.469z"/>
	</g>
	<g>
		<path stroke="#000000" stroke-width="2" stroke-linecap="round" stroke-linejoin="round" d="M323.497,682.949
			c-1.965-0.652-2.836-0.871-3.056-0.652l-5.893,5.891C317.823,687.095,320.88,685.351,323.497,682.949z"/>
	</g>
	<g>
		<path stroke="#000000" stroke-width="2" stroke-linecap="round" stroke-linejoin="round" d="M358.198,302.333l1.092,4.801
			c1.091-1.091,2.182-2.618,2.837-4.801H358.198z"/>
	</g>
	<g>
		<path stroke="#000000" stroke-width="2" stroke-linecap="round" stroke-linejoin="round" d="M365.837,283.782
			c-0.218-0.655-1.091,0-3.057,1.746l2.397,4.365C365.837,287.492,365.837,285.309,365.837,283.782z"/>
	</g>
	<g>
		<path stroke="#000000" stroke-width="2" stroke-linecap="round" stroke-linejoin="round" d="M359.072,272.433
			c0.649,0.438,1.092-0.437,1.523-3.055l-4.583-0.219L359.072,272.433z"/>
	</g>
	<g>
		<path stroke="#000000" stroke-width="2" stroke-linecap="round" stroke-linejoin="round" d="M218.523,357.548l-0.875-5.893
			l-3.49,1.528L218.523,357.548z"/>
	</g>
	<g>
		<path stroke="#000000" stroke-width="2" stroke-linecap="round" stroke-linejoin="round" d="M237.945,357.767
			c-0.217-0.437-0.436,0.654-0.654,3.492l5.02,0.218L237.945,357.767z"/>
	</g>
	<g>
		<path stroke="#000000" stroke-width="2" stroke-linecap="round" stroke-linejoin="round" d="M207.392,332.013
			c0.656-0.873-0.436-1.308-3.273-1.308l-0.436,5.456L207.392,332.013z"/>
	</g>
	<g>
		<path stroke="#000000" stroke-width="2" stroke-linecap="round" stroke-linejoin="round" d="M492.853,394.65
			c0.224,1.526,0.438,1.748,1.095,1.091l4.361-5.674C495.475,391.813,493.728,393.122,492.853,394.65z"/>
	</g>
</g>
</svg>
